PathFileType	4	(X/Y/Z)	Kaydara	
DataRate	CameraRate	NumFrames	NumMarkers	Units	OrigDataRate	OrigDataStartFrame	OrigNumFrames	
24.00	24.00	8	28	mm	24.00	17	66	
Frame#	Time	reference			Hips			Spine			Spine1			Neck			Head			Head_End			LeftShoulder			LeftArm			LeftForeArm			LeftHand			LeftHand_End			RightShoulder			RightArm			RightForeArm			RightHand			RightHand_End			LeftUpLeg			LeftLeg			LeftFoot			LeftFoot_End			RightUpLeg			RightLeg			RightFoot			RightFoot_End			Tail			Tail1			Tail1_End			
		X1	Y1	Z1	X2	Y2	Z2	X3	Y3	Z3	X4	Y4	Z4	X5	Y5	Z5	X6	Y6	Z6	X7	Y7	Z7	X8	Y8	Z8	X9	Y9	Z9	X10	Y10	Z10	X11	Y11	Z11	X12	Y12	Z12	X13	Y13	Z13	X14	Y14	Z14	X15	Y15	Z15	X16	Y16	Z16	X17	Y17	Z17	X18	Y18	Z18	X19	Y19	Z19	X20	Y20	Z20	X21	Y21	Z21	X22	Y22	Z22	X23	Y23	Z23	X24	Y24	Z24	X25	Y25	Z25	X26	Y26	Z26	X27	Y27	Z27	X28	Y28	Z28	

17	0.667	949.43764	66.73111	-507.05143	205.75822	450.20123	285.45530	205.75826	450.20120	285.45524	165.80929	438.32506	470.82794	167.87943	431.10919	695.78260	147.38349	450.86050	832.85887	59.74788	452.56274	978.51979	213.08232	403.88409	668.31474	254.21896	344.27716	702.29702	259.25273	263.26295	573.78482	222.20313	90.50771	552.17602	212.86578	21.36886	569.97009	127.37342	396.84018	668.87747	81.65047	354.38312	718.96844	70.89325	207.71258	680.54957	72.51246	86.89034	811.25290	75.80230	35.41300	861.48493	258.17710	367.40630	239.10444	303.08140	219.04066	278.74324	283.06022	149.26578	114.02947	284.24013	63.71561	48.12214	162.58385	361.61696	240.28992	158.16997	264.88181	367.65879	187.79448	100.77537	299.89850	200.54992	4.10333	346.32927	206.08280	431.30584	219.35330	228.82404	376.48299	115.05902	245.47097	352.18515	-1.27023 
18	0.708	949.43764	66.73111	-507.05143	202.84982	452.15874	304.86909	202.84986	452.15872	304.86903	162.41759	434.56821	489.68192	165.46629	428.66655	714.66377	144.11895	452.00934	851.04378	55.92657	457.77607	996.26378	210.49053	401.18553	687.15736	252.48446	342.01675	720.85556	258.04704	263.85799	590.60850	220.51405	92.52529	560.27104	211.07563	22.07984	571.77541	124.77045	394.32606	688.13895	79.01161	352.77094	738.94836	57.27104	209.30382	693.68789	70.94567	80.30933	815.57891	77.57267	32.01629	868.56817	257.10183	371.05545	257.64499	295.95931	224.08727	307.54932	282.97587	152.07345	143.09432	285.31474	60.87891	85.28354	161.55849	364.55167	256.17477	154.06987	263.86061	380.29259	187.15198	104.10576	304.24027	200.67442	5.61050	346.42828	205.03513	435.10273	238.30384	231.07301	376.02318	137.15227	251.64030	342.72043	23.71545 
19	0.750	949.43764	66.73111	-507.05143	200.93935	454.01392	325.00137	200.93940	454.01389	325.00132	160.61898	431.69708	509.32772	164.02148	425.64325	734.30046	141.44015	452.86111	869.76031	53.70274	461.63807	1015.10512	208.78273	397.83034	706.69858	250.96322	339.05941	740.85686	257.80947	263.78033	608.98488	220.30525	94.18636	570.05797	210.65588	22.96189	574.29585	123.01400	391.63394	707.82896	76.44971	350.46176	758.21660	46.01456	210.95259	706.11219	68.86355	76.01620	819.92824	86.36269	30.72355	873.09168	256.65655	374.10857	277.44227	289.13351	230.03061	338.97912	282.87158	157.29813	174.44711	283.47072	59.32907	128.99709	161.20689	367.68631	272.84790	149.07759	262.54412	392.83957	186.46184	107.60181	309.20170	200.94522	7.31473	346.57460	205.19222	438.64809	258.12522	234.17984	377.02017	159.32380	258.24033	337.53466	48.58994 
20	0.792	949.43764	66.73111	-507.05143	199.75121	455.34574	346.03841	199.75126	455.34572	346.03835	160.46869	429.78466	530.16742	162.78219	422.40323	755.11434	138.77107	453.17922	889.56287	50.13996	466.93955	1033.97609	207.31062	394.18157	727.55083	248.87096	335.85963	763.20603	256.77316	264.02610	629.48419	220.66598	95.92802	583.40502	210.67215	24.72331	579.66232	121.46595	389.06979	728.26592	74.51816	346.89460	777.45386	43.92421	214.78590	708.78597	66.46152	75.91672	817.83375	76.30855	27.00663	869.74555	256.44872	376.24563	298.29217	281.32641	236.15859	371.48176	284.12616	162.60150	207.22123	282.73786	59.86616	173.94178	161.17470	370.88279	290.10118	145.12688	261.72262	405.97406	185.65280	111.46365	315.53135	201.27805	9.20515	346.56441	206.28150	441.79235	278.95431	238.47497	378.78668	182.03233	267.13947	334.61932	74.20102 
21	0.833	949.43764	66.73111	-507.05143	198.86490	456.81150	367.08322	198.86495	456.81147	367.08317	161.75912	427.39389	551.08796	161.17641	419.60299	776.03222	136.26780	453.41039	909.58641	46.94504	469.75141	1053.30285	205.59091	390.72678	748.96735	246.23981	333.26589	786.99258	248.14506	266.32311	650.54089	219.04911	97.00560	603.96847	209.72141	26.90482	590.44555	119.67396	386.97153	748.61467	72.70700	343.08939	796.26714	42.83392	216.98763	716.83214	66.76389	74.20691	820.39381	77.27709	25.36754	872.24151	256.15115	377.87312	319.77404	271.85389	243.20381	404.73048	283.88980	165.83944	242.65057	282.09280	60.39214	219.37742	161.22111	374.40594	307.55693	141.79685	260.66450	418.39727	184.83594	115.01872	321.77979	201.34720	11.27800	346.86447	207.93753	444.74564	300.01074	242.64339	381.70040	203.98572	274.85267	335.75929	97.91038 
22	0.875	949.43764	66.73111	-507.05143	197.49544	458.43552	387.95659	197.49549	458.43550	387.95654	163.11910	425.46803	571.88971	159.57205	417.56537	796.80285	133.64652	453.49403	929.60759	43.60172	475.20083	1072.15846	204.00333	388.20811	770.28864	244.13689	331.96624	810.61422	242.19562	264.78178	674.28188	210.94591	92.74116	640.97326	205.06874	27.10242	611.97309	118.06129	385.41498	768.83508	70.83695	339.79073	814.55798	44.84170	220.48035	724.04137	68.58334	73.78955	822.03188	78.94966	24.07996	873.07590	255.13024	379.41004	341.21964	262.96340	252.58149	438.44697	281.04857	167.12797	281.06009	278.29303	59.92096	268.29041	160.74826	378.21605	324.98365	138.79929	259.33086	429.79089	184.04499	118.12390	327.74475	200.82603	13.34766	347.85286	209.14004	447.71302	321.05333	246.26504	385.85771	225.15933	281.98839	340.79994	119.83298 
23	0.917	949.43764	66.73111	-507.05143	196.29699	461.16885	407.51027	196.29704	461.16883	407.51022	164.60115	424.80413	591.28448	158.85752	416.87703	816.15139	132.03137	454.17203	948.39942	42.21252	479.92155	1090.41892	203.26324	387.11601	790.04767	243.02862	332.38530	832.74742	247.47152	260.58065	698.85051	202.98760	88.52365	688.77309	195.97407	30.22585	647.10568	117.31657	385.11994	787.78197	69.64116	337.81733	831.27696	46.66953	225.50445	731.46666	69.49806	74.75726	823.32602	78.95265	24.13317	873.64309	254.34727	381.46075	362.47780	255.76925	261.64662	468.50867	277.91259	164.51566	318.59117	272.79708	56.63695	318.47107	160.81007	382.49596	341.91785	133.28266	258.20831	438.84473	183.03912	121.08091	333.39159	200.30052	15.57593	348.71300	210.78535	450.97088	341.08208	250.96072	391.49799	244.91077	290.47942	349.48995	139.67962 
24	0.958	949.43764	66.73111	-507.05143	195.11853	462.72628	426.48366	195.11858	462.72625	426.48361	166.08637	423.31271	610.06930	158.46186	416.49690	834.91673	130.75059	454.34825	966.82375	41.74325	484.34160	1108.52093	202.67695	386.03574	809.30161	242.01420	332.94227	854.39783	251.87546	255.45625	724.00343	197.58534	86.34993	735.81950	189.07237	33.50924	687.65950	116.73204	385.15754	806.36057	68.79705	336.36053	847.87421	44.75905	230.66765	741.31359	69.35972	75.80910	825.56105	79.26573	24.03276	874.60263	253.59070	382.30052	383.31142	250.60952	270.67548	497.90181	272.57485	159.95107	357.69612	265.41576	52.62920	367.43084	161.06323	385.23969	358.75497	132.48255	256.81681	449.80829	182.53236	123.17754	340.10161	200.54623	17.13245	349.79388	212.27288	452.77487	360.65576	255.42574	396.60520	263.79089	299.43493	359.16735	158.61675 
